<svg xmlns="http://www.w3.org/2000/svg" version="1.1" xmlns:xlink="http://www.w3.org/1999/xlink" xmlns:svgjs="http://svgjs.dev/svgjs" viewBox="0 0 800 800"><defs><linearGradient x1="50%" y1="0%" x2="50%" y2="100%" id="ccchaos-grad"><stop stop-color="#8796c5" stop-opacity="1" offset="0%"></stop><stop stop-color="#cbd2e6" stop-opacity="1" offset="100%"></stop></linearGradient></defs><g stroke-width="3.5" stroke="url(#ccchaos-grad)" fill="none" stroke-linecap="round"><path d="M381.51 32.68Q389.27 38.22 397.26 44.18 405.53 50.57 414.11 57.38 423.03 64.56 432.32 72.08 441.99 79.86 452.06 87.84 462.54 95.94 473.43 104.05 484.72 112.09 496.4 119.97 508.45 127.59 520.85 134.86 533.56 141.73 546.54 148.12 559.75 153.99 573.15 159.32 586.67 164.1 600.26 168.35 613.85 172.09 627.4 175.38 640.82 178.3 654.06 180.92 667.07 183.35 679.77 185.7 692.11 188.09 704.03 190.63 715.5 193.43 726.47 196.6 740.73 207.69 740.22 225.85 734 236.56 726.27 247.27 717.48 257.98 708.14 268.69 698.79 279.4 689.98 290.11 682.21 300.82 675.94 311.53 671.53 322.24 669.24 332.95 669.21 343.66 671.42 354.37 675.76 365.08 681.97 375.8 689.69 386.51 698.48 397.22 707.82 407.93 717.17 418.64 725.99 429.35 733.76 440.06 740.03 450.77 744.45 461.48 746.74 472.19 746.79 482.9 744.58 493.61 740.24 504.33 734.04 515.04 726.32 525.75 717.53 536.46 708.19 547.17 693.92 554.58 679.84 563.05 666 572.48 652.48 582.75 639.31 593.7 626.55 605.15 614.22 616.88 602.36 628.69 591 640.35 580.13 651.63 569.77 662.34 559.91 672.27 550.54 681.25 541.64 689.17 533.19 695.91 525.16 701.42 510.32 708.18 496.34 711.57 483.28 710.74 470.47 708.55 457.53 706.44 444.23 705.82 429.92 709.74 414.81 717.3 402.75 712.71 390.61 709.42 378.43 707.36 366.27 706.37 354.15 706.29 342.13 706.91 330.24 708.01 318.5 709.34 306.95 710.66 295.61 711.72 284.49 712.29 273.62 712.17 263 711.16 252.64 709.11 242.53 705.92 232.67 701.51 223.05 695.86 213.64 688.98 204.45 680.93 195.44 671.83 186.59 661.8 177.87 651.01 169.26 639.67 160.73 627.98 152.24 616.16 143.78 604.44 135.31 593.04 126.81 582.16 118.25 571.97 109.61 562.64 100.87 554.29 92.03 547 93.45 536.29 94.78 525.59 95.96 514.88 96.9 504.17 97.56 493.46 97.9 482.75 97.89 472.04 97.54 461.33 96.87 450.62 95.92 439.92 94.73 429.21 93.39 418.5 91.97 407.79 90.55 397.08 89.21 386.37 88.03 375.66 87.09 364.96 86.43 354.25 86.09 343.54 86.1 332.83 86.44 322.12 87.12 311.41 88.07 300.7 89.25 290 90.59 279.29 92.02 268.58 93.44 257.87 94.78 247.16 95.95 236.45 96.9 225.75 97.56 215.04 97.9 204.33 108.08 200.07 118.17 196.37 128.14 193.15 137.98 190.31 147.66 187.74 157.18 185.34 166.51 182.99 175.66 180.56 184.61 177.96 193.38 175.08 201.96 171.83 210.37 168.14 218.61 163.96 226.71 159.24 234.68 153.97 242.55 148.16 250.35 141.83 258.12 135.02 265.87 127.78 273.66 120.2 281.51 112.36 289.46 104.33 297.55 96.23 305.81 88.13 314.28 80.14 322.98 72.33 331.96 64.79 341.22 57.56 350.79 50.72 360.69 44.28 376.22 35.47 381.51 32.68" stroke-dasharray="4 2" transform="rotate(0, 400, 400)" opacity="0.05"></path><path d="M378.71 44.91Q386.8 50.24 395.17 56 403.85 62.16 412.85 68.72 422.2 75.66 431.9 82.92 441.97 90.45 452.4 98.19 463.2 106.06 474.34 113.97 485.83 121.84 497.63 129.59 509.71 137.13 522.05 144.37 534.61 151.24 547.35 157.69 560.22 163.67 573.17 169.14 586.15 174.08 599.11 178.49 611.99 182.4 624.74 185.85 637.31 188.87 649.63 191.55 661.66 193.97 673.35 196.22 684.65 198.4 695.53 200.62 705.96 202.98 715.89 205.6 728.14 215.44 725.88 232.68 719.23 243.04 711.39 253.4 702.76 263.76 693.83 274.12 685.06 284.47 676.94 294.83 669.9 305.19 664.33 315.55 660.53 325.91 658.69 336.27 658.92 346.63 661.21 356.99 665.44 367.35 671.37 377.7 678.68 388.06 686.98 398.42 695.83 408.78 704.74 419.14 713.23 429.5 720.84 439.86 727.16 450.22 731.86 460.58 734.67 470.94 735.44 481.29 734.14 491.65 730.83 502.01 725.69 512.37 719 522.73 711.12 533.09 702.48 543.45 688.72 551.69 675.07 560.8 661.58 570.68 648.3 581.17 635.29 592.12 622.59 603.34 610.25 614.64 598.29 625.83 586.74 636.71 575.63 647.09 564.96 656.79 554.75 665.67 545 673.59 535.69 680.46 526.81 686.22 518.35 690.84 502.75 696.25 488.12 698.71 474.72 697.63 461.8 695.52 449.21 693.79 436.55 693.57 423.36 697.64 409.64 705.08 397.77 700.61 385.91 697.36 374.11 695.23 362.4 694.1 350.81 693.84 339.37 694.25 328.11 695.14 317.05 696.3 306.21 697.51 295.61 698.56 285.25 699.24 275.14 699.34 265.28 698.7 255.66 697.17 246.29 694.64 237.14 691.02 228.2 686.26 219.46 680.36 210.89 673.36 202.47 665.32 194.17 656.33 185.98 646.53 177.85 636.09 169.78 625.16 161.72 613.94 153.65 602.63 145.56 591.43 137.41 580.52 129.19 570.09 120.88 560.3 112.46 551.28 103.93 543.15 105.4 532.79 106.73 522.44 107.87 512.08 108.74 501.73 109.31 491.37 109.53 481.02 109.4 470.66 108.92 460.31 108.12 449.95 107.05 439.59 105.75 429.24 104.31 418.88 102.8 408.53 101.29 398.17 99.88 387.82 98.64 377.46 97.63 367.11 96.91 356.75 96.53 346.4 96.49 336.04 96.8 325.69 97.44 315.33 98.39 304.98 99.59 294.62 100.97 284.27 102.46 273.91 103.97 263.56 105.44 253.2 106.77 242.85 107.9 232.49 114.01 215.23 129.09 205.31 138.84 202.65 148.46 200.26 157.95 198.03 167.29 195.84 176.46 193.6 185.45 191.21 194.26 188.56 202.89 185.57 211.32 182.18 219.57 178.33 227.65 173.97 235.56 169.09 243.32 163.69 250.95 157.77 258.47 151.38 265.91 144.55 273.29 137.35 280.65 129.85 288.02 122.13 295.42 114.27 302.9 106.36 310.48 98.49 318.21 90.73 326.11 83.18 334.21 75.88 342.55 68.91 351.15 62.3 360.03 56.09 373.96 47.6 378.71 44.91" stroke-dasharray="1 1" transform="rotate(3.7407407407407405, 400, 400)" opacity="0.09"></path><path d="M377.53 57.13Q385.99 62.27 394.75 67.81 403.81 73.74 413.2 80.06 422.91 86.74 432.94 93.74 443.3 101.01 453.97 108.49 464.94 116.12 476.19 123.82 487.71 131.51 499.46 139.1 511.4 146.53 523.52 153.72 535.76 160.58 548.09 167.07 560.46 173.13 572.82 178.72 585.14 183.82 597.35 188.42 609.42 192.52 621.3 196.14 632.94 199.32 644.29 202.12 655.33 204.6 666 206.84 676.28 208.92 686.14 210.93 695.55 212.98 704.51 215.17 714.92 223.96 711.21 240.36 704.29 250.38 696.46 260.4 688.1 270.42 679.63 280.44 671.49 290.46 664.07 300.48 657.75 310.5 652.84 320.52 649.6 330.54 648.18 340.56 648.66 350.58 651.01 360.6 655.11 370.63 660.76 380.65 667.67 390.67 675.51 400.69 683.87 410.71 692.33 420.73 700.48 430.75 707.9 440.77 714.23 450.79 719.14 460.81 722.38 470.83 723.81 480.86 723.34 490.88 720.99 500.9 716.89 510.92 711.25 520.94 704.34 530.96 696.5 540.98 683.35 549.83 670.22 559.36 657.17 569.44 644.25 579.92 631.51 590.65 619.01 601.45 606.76 612.15 594.83 622.59 583.22 632.58 571.98 641.99 561.12 650.66 550.66 658.49 540.6 665.37 530.95 671.26 521.7 676.1 512.86 679.9 496.47 684.11 481.12 685.78 467.19 684.54 453.92 682.55 441.34 681.21 428.95 681.36 416.48 685.55 403.73 692.85 392.26 688.53 380.88 685.31 369.63 683.12 358.52 681.87 347.59 681.43 336.86 681.64 326.34 682.33 316.05 683.32 305.99 684.41 296.18 685.42 286.6 686.15 277.28 686.43 268.18 686.1 259.32 685.02 250.66 683.06 242.21 680.15 233.93 676.22 225.81 671.25 217.83 665.24 209.97 658.23 202.19 650.29 194.48 641.52 186.81 632.03 179.15 621.97 171.49 611.49 163.8 600.76 156.05 589.95 148.24 579.24 140.33 568.79 132.33 558.77 124.21 549.32 115.97 540.56 117.45 530.54 118.75 520.53 119.81 510.51 120.58 500.5 121.02 490.48 121.11 480.46 120.84 470.45 120.23 460.43 119.31 450.42 118.12 440.4 116.72 430.39 115.19 420.37 113.59 410.35 112.02 400.34 110.55 390.32 109.25 380.31 108.18 370.29 107.41 360.28 106.97 350.26 106.88 340.24 107.15 330.23 107.76 320.21 108.68 310.2 109.87 300.18 111.26 290.17 112.8 280.15 114.39 270.14 115.96 260.12 117.44 250.11 118.74 240.09 125.02 223.68 139.84 214.83 149.36 212.61 158.78 210.55 168.08 208.53 177.24 206.46 186.25 204.24 195.1 201.79 203.78 199.03 212.27 195.9 220.59 192.33 228.72 188.29 236.66 183.76 244.44 178.72 252.04 173.19 259.49 167.18 266.81 160.75 274.01 153.93 281.11 146.78 288.13 139.38 295.12 131.81 302.08 124.13 309.06 116.43 316.08 108.8 323.18 101.3 330.39 94 337.73 86.96 345.24 80.25 352.96 73.88 360.89 67.9 373.3 59.72 377.53 57.13" stroke-dasharray="6 1" transform="rotate(7.481481481481481, 400, 400)" opacity="0.12"></path><path d="M378.05 69.35Q386.86 74.29 395.96 79.61 405.35 85.32 415.03 91.39 425 97.81 435.24 104.54 445.75 111.54 456.5 118.76 467.49 126.14 478.68 133.61 490.06 141.09 501.58 148.52 513.22 155.82 524.95 162.92 536.72 169.75 548.49 176.26 560.23 182.38 571.89 188.08 583.43 193.32 594.81 198.1 606 202.39 616.95 206.21 627.63 209.59 638 212.55 648.04 215.16 657.71 217.46 667 219.54 675.88 221.46 697.25 232.18 696.29 248.79 689.24 258.48 681.54 268.17 673.53 277.87 665.59 287.56 658.08 297.25 651.36 306.94 645.74 316.64 641.47 326.33 638.76 336.02 637.72 345.71 638.42 355.41 640.8 365.1 644.78 374.79 650.15 384.48 656.68 394.18 664.05 403.87 671.94 413.56 679.96 423.25 687.76 432.95 694.96 442.64 701.24 452.33 706.3 462.03 709.91 471.72 711.9 481.41 712.18 491.1 710.73 500.8 707.63 510.49 703.02 520.18 697.11 529.88 690.17 539.57 677.68 548.79 665.15 558.48 652.64 568.52 640.19 578.77 627.84 589.08 615.63 599.29 603.62 609.26 591.83 618.83 580.3 627.88 569.05 636.27 558.11 643.91 547.51 650.7 537.25 656.6 527.35 661.54 517.81 665.54 508.64 668.61 491.55 671.77 475.47 672.78 460.9 671.45 447.1 669.64 434.28 668.68 421.84 669.19 409.7 673.48 397.54 680.63 386.65 676.44 375.92 673.26 365.36 671.04 354.99 669.68 344.83 669.07 334.89 669.09 325.18 669.58 315.71 670.39 306.47 671.35 297.47 672.29 280.25 673.21 263.67 672.66 247.98 668.47 232.73 661.62 225.29 656.55 217.94 650.54 210.64 643.63 203.37 635.89 196.12 627.4 188.85 618.28 181.54 608.64 174.19 598.63 166.76 588.4 159.25 578.08 151.65 567.85 143.93 557.84 136.09 548.2 128.14 539.05 129.57 529.36 130.8 519.67 131.75 509.99 132.39 500.3 132.69 490.61 132.64 480.93 132.22 471.24 131.48 461.55 130.43 451.87 129.13 442.18 127.64 432.49 126.02 422.81 124.36 413.12 122.73 403.44 121.2 393.75 119.85 384.06 118.74 374.38 117.92 364.69 117.42 355 117.28 345.32 117.49 335.63 118.05 325.94 118.94 316.26 120.1 306.57 121.49 296.89 123.05 287.2 124.69 277.51 126.35 267.83 127.94 258.14 129.4 248.45 135.85 232.81 150.4 224.83 159.68 222.93 168.89 221.07 177.99 219.15 186.98 217.09 195.83 214.82 204.54 212.25 213.09 209.33 221.47 206.01 229.68 202.24 237.71 198.01 245.56 193.3 253.23 188.12 260.72 182.48 268.05 176.41 275.22 169.95 282.25 163.16 289.15 156.09 295.94 148.82 302.64 141.41 309.28 133.93 315.87 126.46 322.46 119.07 329.05 111.83 335.69 104.8 342.4 98.04 349.22 91.58 356.16 85.46 363.26 79.71 374.3 71.85 378.05 69.35" stroke-dasharray="6 11" transform="rotate(11.222222222222221, 400, 400)" opacity="0.16"></path><path d="M380.22 81.58Q389.32 86.32 398.68 91.42 408.29 96.89 418.13 102.71 428.21 108.86 438.51 115.32 449.01 122.05 459.68 129 470.52 136.11 481.48 143.33 492.55 150.59 503.69 157.83 514.87 164.98 526.05 171.97 537.21 178.74 548.3 185.24 559.3 191.4 570.16 197.18 580.86 202.55 591.35 207.49 601.62 211.97 611.62 216.01 621.33 219.6 630.72 222.77 639.78 225.55 648.48 227.99 664.59 232.01 679.54 235.59 686.9 242.9 681.17 257.86 674.13 267.23 666.66 276.6 659.08 285.97 651.71 295.34 644.86 304.71 638.84 314.08 633.88 323.45 630.22 332.82 627.99 342.19 627.31 351.56 628.19 360.94 630.61 370.31 634.45 379.68 639.55 389.05 645.7 398.42 652.63 407.79 660.04 417.16 667.63 426.53 675.06 435.9 682.02 445.27 688.2 454.64 693.35 464.01 697.25 473.38 699.73 482.75 700.68 492.12 700.06 501.49 697.9 510.86 694.29 520.23 689.39 529.6 683.4 538.97 671.63 548.3 659.78 557.92 647.88 567.71 635.97 577.52 624.11 587.23 612.32 596.72 600.64 605.83 589.12 614.48 577.78 622.53 566.65 629.9 555.76 636.52 545.14 642.32 534.8 647.27 524.76 651.36 515.03 654.59 505.63 657 487.94 659.27 471.22 659.74 456 658.41 441.59 656.8 428.32 656.21 415.59 657.05 403.47 661.42 391.54 668.41 381.39 664.36 371.43 661.23 361.67 658.98 352.13 657.52 342.82 656.77 333.73 656.6 316.35 657.63 299.63 659.2 283.93 660.24 268.77 660.13 254.32 656.99 240.19 651.52 233.26 647.32 226.37 642.25 219.5 636.34 212.63 629.62 205.74 622.14 198.82 614 191.84 605.29 184.79 596.11 177.66 586.59 170.43 576.85 163.1 567.03 155.65 557.25 148.08 547.66 140.39 538.37 141.75 529.01 142.86 519.64 143.67 510.28 144.16 500.92 144.3 491.55 144.09 482.19 143.53 472.83 142.64 463.47 141.48 454.1 140.08 444.74 138.5 435.38 136.82 426.01 135.1 416.65 133.42 407.29 131.85 397.92 130.46 388.56 129.3 379.2 128.43 369.83 127.89 360.47 127.69 351.11 127.84 341.74 128.34 332.38 129.17 323.02 130.3 313.65 131.66 304.29 133.21 294.93 134.88 285.56 136.6 276.2 138.29 266.84 139.88 257.47 146.47 242.51 160.73 235.18 169.77 233.47 178.75 231.69 187.65 229.78 196.45 227.65 205.14 225.24 213.7 222.5 222.13 219.39 230.4 215.85 238.51 211.88 246.45 207.45 254.22 202.58 261.82 197.26 269.24 191.53 276.48 185.42 283.56 178.97 290.49 172.24 297.26 165.28 303.89 158.15 310.41 150.92 316.81 143.66 323.14 136.44 329.4 129.31 335.63 122.34 341.83 115.59 354.34 103.06 367.03 91.52 376.89 83.97 380.22 81.58" stroke-dasharray="10 10" transform="rotate(14.962962962962962, 400, 400)" opacity="0.19"></path><path d="M383.9 93.81Q393.17 98.35 402.65 103.24 412.33 108.47 422.2 114.03 432.23 119.92 442.42 126.1 452.74 132.55 463.17 139.21 473.68 146.05 484.25 153.01 494.86 160.03 505.46 167.06 516.04 174.03 526.57 180.89 537 187.57 547.33 194.02 557.5 200.19 567.5 206.03 577.3 211.51 586.87 216.59 596.19 221.26 605.24 225.5 614 229.31 622.44 232.71 638.18 238.18 652.91 242.7 669.11 252.26 665.92 267.43 659.02 276.48 651.88 285.53 644.79 294.57 638.02 303.62 631.84 312.67 626.49 321.72 622.17 330.77 619.07 339.82 617.31 348.87 616.94 357.92 617.99 366.96 620.41 376.01 624.11 385.06 628.94 394.11 634.72 403.16 641.22 412.21 648.18 421.25 655.33 430.3 662.38 439.35 669.07 448.4 675.13 457.45 680.32 466.5 684.43 475.55 687.31 484.59 688.85 493.64 688.97 502.69 687.69 511.74 685.04 520.79 681.14 529.83 676.13 538.88 665.12 548.09 653.99 557.42 642.77 566.74 631.49 575.95 620.19 584.92 608.91 593.56 597.68 601.76 586.53 609.42 575.5 616.46 564.62 622.83 553.9 628.46 543.39 633.32 533.09 637.4 523.03 640.71 513.22 643.25 503.69 645.09 494.43 646.26 485.45 646.86 468.5 646.54 452.4 645.41 437.64 644.14 423.61 643.56 410.61 645.27 398.11 648.97 384.48 652.21 367.77 649.2 350.35 645.71 333.58 644.17 317.87 644.84 302.74 646.15 288.47 647.24 274.63 647.46 261.3 645.2 248.18 640.95 235.21 632.96 222.21 622.64 215.65 616.18 209.03 609.04 202.34 601.29 195.57 593.03 188.7 584.33 181.73 575.31 174.65 566.08 167.45 556.74 160.13 547.43 152.69 538.24 153.92 529.2 154.89 520.15 155.54 511.11 155.86 502.07 155.82 493.03 155.45 483.99 154.74 474.95 153.72 465.91 152.44 456.87 150.95 447.83 149.3 438.79 147.56 429.74 145.8 420.7 144.08 411.66 142.48 402.62 141.05 393.58 139.86 384.54 138.95 375.5 138.35 366.46 138.09 357.41 138.19 348.37 138.62 339.33 139.39 330.29 140.45 321.25 141.77 312.21 143.29 303.17 144.96 294.12 146.71 285.08 148.47 276.04 150.17 267 156.86 252.65 170.79 245.77 179.59 244.11 188.33 242.31 197.01 240.31 205.62 238.03 214.13 235.44 222.54 232.49 230.83 229.15 238.98 225.39 246.99 221.21 254.85 216.61 262.55 211.58 270.09 206.16 277.46 200.37 284.65 194.25 291.68 187.83 298.55 181.18 305.25 174.35 311.8 167.39 318.2 160.37 324.48 153.35 330.63 146.38 336.69 139.53 348.54 126.49 360.27 114.22 377.96 98.66 383.9 93.81" stroke-dasharray="8 3" transform="rotate(18.703703703703702, 400, 400)" opacity="0.23"></path><path d="M388.8 106.03Q407.55 115.04 426.85 125.34 446.59 136.86 466.58 149.39 486.66 162.62 506.61 176.19 526.25 189.66 545.37 202.6 563.78 214.61 581.31 225.37 597.81 234.63 613.19 242.29 627.37 248.4 640.34 253.14 652.11 256.81 662.77 259.84 650.62 277.29 637.24 294.74 624.53 312.19 614.32 329.65 608.05 347.1 606.61 364.55 610.21 382 618.34 399.45 629.84 416.9 643.06 434.35 656.14 451.8 667.2 469.25 674.68 486.7 677.49 504.14 675.26 521.59 668.28 539.04 647.69 556.73 626.6 573.87 605.25 589.72 583.89 603.61 562.74 615.05 542.03 623.74 521.95 629.64 502.64 632.93 484.23 634.04 466.8 633.61 450.37 632.42 434.95 631.34 420.48 631.22 406.89 632.88 394.06 636.97 381.85 643.95 365.28 637.19 349.54 633.3 334.6 631.8 320.4 632.02 306.85 633.16 293.83 634.33 281.22 634.67 268.87 633.42 256.65 629.96 244.42 623.87 232.05 614.97 219.43 603.34 206.48 589.28 193.11 573.3 179.3 556.08 165.01 538.38 166.88 520.95 167.47 503.51 166.72 486.08 164.72 468.64 161.77 451.21 158.27 433.77 154.73 416.33 151.66 398.9 149.49 381.46 148.53 364.03 148.91 346.59 150.59 329.16 153.32 311.72 156.71 294.28 160.29 276.85 163.54 259.41 180.61 256.4 197.62 252.79 214.46 248.14 231.01 242.13 247.17 234.58 262.84 225.43 277.95 214.79 292.44 202.86 306.27 189.98 319.46 176.54 332.03 162.97 344.04 149.71 355.6 137.12 366.81 125.53 383.31 110.58 388.8 106.03" stroke-dasharray="2 1" transform="rotate(22.444444444444443, 400, 400)" opacity="0.26"></path><path d="M394.55 118.26Q412.96 126.84 431.7 136.65 450.62 147.61 469.57 159.54 488.38 172.19 506.89 185.23 524.91 198.29 542.3 210.98 558.92 222.93 574.63 233.8 589.35 243.37 603.03 251.47 615.63 258.08 627.17 263.3 637.71 267.33 647.33 270.48 635.33 287.27 622.76 304.06 611.27 320.85 602.34 337.64 597.13 354.43 596.32 371.23 600.01 388.02 607.73 404.81 618.47 421.6 630.84 438.39 643.23 455.18 654.03 471.97 661.84 488.76 665.64 505.55 664.94 522.34 659.83 539.13 640.82 555.61 621.21 571.13 601.21 585.09 581.01 597.02 560.84 606.58 540.88 613.61 521.31 618.19 502.29 620.56 483.95 621.16 466.39 620.58 449.68 619.52 433.85 618.73 418.91 618.94 404.82 620.84 391.52 624.98 378.91 631.72 364.17 625.19 350.17 621.24 336.86 619.5 324.14 619.39 311.92 620.24 300.07 621.29 288.47 621.81 276.99 621.1 265.51 618.58 253.91 613.83 242.09 606.59 229.96 596.85 217.45 584.75 204.52 570.64 191.14 555.01 177.31 538.49 178.79 521.71 178.99 504.93 177.89 488.16 175.64 471.38 172.52 454.6 168.94 437.82 165.37 421.05 162.27 404.27 160.04 387.49 158.97 370.71 159.2 353.94 160.71 337.16 163.29 320.38 166.61 303.6 170.24 286.82 173.7 270.05 190.15 266.94 206.6 262.99 222.94 257.87 239.08 251.37 254.92 243.38 270.35 233.92 285.3 223.14 299.7 211.28 313.5 198.64 326.68 185.6 339.24 172.55 351.2 159.86 362.62 147.87 373.58 136.83 389.36 122.6 394.55 118.26" stroke-dasharray="1 5" transform="rotate(26.185185185185183, 400, 400)" opacity="0.30"></path><path d="M400.7 130.48Q418.45 138.65 436.31 147.95 454.15 158.34 471.81 169.67 489.17 181.72 506.08 194.21 522.41 206.81 538.05 219.18 552.89 230.98 566.87 241.9 579.92 251.7 592.03 260.2 603.22 267.31 613.5 273.06 622.97 277.56 631.73 281.03 620.12 297.15 608.5 313.26 598.23 329.38 590.54 345.49 586.31 361.6 586.06 377.72 589.81 393.83 597.13 409.95 607.13 426.06 618.66 442.17 630.34 458.29 640.81 474.4 648.81 490.52 653.42 506.63 654.09 522.74 650.73 538.86 633.31 553.82 615.23 567.55 596.66 579.59 577.77 589.61 558.73 597.41 539.71 602.96 520.88 606.39 502.39 608 484.37 608.21 466.93 607.57 450.16 606.68 434.12 606.19 418.85 606.73 404.35 608.84 390.6 613 377.57 619.5 364.57 613.2 352.2 609.22 340.36 607.26 328.97 606.83 317.9 607.39 307.05 608.28 296.3 608.89 285.55 608.59 274.68 606.85 263.61 603.26 252.25 597.53 240.54 589.54 228.43 579.35 215.9 567.16 202.93 553.31 189.54 538.26 190.59 522.15 190.38 506.05 188.95 489.95 186.46 473.85 183.2 457.75 179.57 441.65 175.99 425.54 172.87 409.44 170.6 393.34 169.43 377.24 169.51 361.14 170.82 345.03 173.22 328.93 176.41 312.83 180.02 296.73 183.63 280.62 199.42 277.22 215.26 272.81 231.06 267.16 246.74 260.16 262.19 251.78 277.33 242.08 292.08 231.24 306.37 219.5 320.12 207.17 333.31 194.58 345.9 182.08 357.9 169.99 369.33 158.6 380.22 148.13 395.68 134.61 400.7 130.48" stroke-dasharray="11 8" transform="rotate(29.925925925925924, 400, 400)" opacity="0.33"></path><path d="M406.81 142.71Q423.6 150.45 440.31 159.26 456.82 169.08 473.03 179.79 488.8 191.22 504.05 203.12 518.66 215.21 532.58 227.2 545.73 238.78 558.08 249.67 569.6 259.62 580.31 268.44 590.25 276.02 599.46 282.31 608.02 287.36 616.05 291.31 605.05 306.72 594.47 322.14 585.44 337.55 578.92 352.97 575.6 368.38 575.84 383.8 579.62 399.21 586.52 414.62 595.82 430.04 606.52 445.45 617.49 460.87 627.55 476.28 635.63 491.69 640.88 507.11 642.73 522.52 640.98 537.93 625.12 551.2 608.59 563.05 591.5 573.18 574 581.38 556.23 587.58 538.32 591.83 520.44 594.3 502.7 595.31 485.24 595.25 468.17 594.62 451.58 593.94 435.56 593.75 420.16 594.58 405.41 596.88 391.34 601.03 377.92 607.28 366.52 601.21 355.59 597.23 345.04 595.08 334.76 594.36 324.66 594.62 314.63 595.33 304.58 595.94 294.41 595.93 284.04 594.81 273.4 592.2 262.43 587.8 251.09 581.43 239.34 573.05 227.19 562.76 214.62 550.77 201.67 537.41 202.25 522 201.63 506.6 199.88 491.2 197.18 475.79 193.82 460.39 190.16 444.98 186.58 429.58 183.48 414.18 181.17 398.77 179.91 383.37 179.83 367.96 180.94 352.56 183.12 337.16 186.14 321.75 189.67 306.35 193.34 290.94 208.43 287.08 223.61 282.12 238.81 275.94 253.96 268.47 268.97 259.75 283.76 249.89 298.24 239.08 312.35 227.55 326.02 215.59 339.19 203.5 351.83 191.58 363.91 180.11 375.43 169.33 386.39 159.43 401.82 146.62 406.81 142.71" stroke-dasharray="11 4" transform="rotate(33.666666666666664, 400, 400)" opacity="0.37"></path><path d="M412.39 154.93Q427.97 162.25 443.33 170.56 458.36 179.8 472.99 189.9 487.13 200.68 500.7 211.96 513.64 223.5 525.91 235.05 537.49 246.33 548.35 257.09 558.51 267.1 567.99 276.17 576.85 284.15 585.15 290.96 592.96 296.6 600.4 301.11 590.19 315.8 580.71 330.49 572.9 345.18 567.48 359.86 564.99 374.55 565.65 389.24 569.41 403.93 575.91 418.62 584.52 433.31 594.42 448 604.66 462.68 614.27 477.37 622.32 492.06 628.03 506.75 630.88 521.44 630.57 536.13 616.23 547.56 601.23 557.53 585.65 565.83 569.59 572.37 553.18 577.15 536.52 580.28 519.75 581.97 502.96 582.52 486.29 582.31 469.83 581.75 453.68 581.29 437.92 581.4 422.62 582.49 407.84 584.95 393.61 589.07 379.95 595.05 369.93 589.24 360.22 585.28 350.73 582.97 341.36 581.98 332.03 581.95 322.65 582.44 313.15 582.99 303.44 583.16 293.47 582.53 283.18 580.72 272.55 577.45 261.53 572.52 250.13 565.82 238.33 557.36 226.16 547.26 213.64 535.7 213.75 521.02 212.73 506.34 210.69 491.65 207.81 476.97 204.37 462.29 200.71 447.61 197.16 432.93 194.08 418.25 191.76 403.57 190.41 388.89 190.18 374.21 191.07 359.53 193.01 344.85 195.8 330.17 199.19 315.49 202.85 300.81 217.19 296.38 231.67 290.85 246.22 284.14 260.77 276.27 275.26 267.3 289.61 257.37 303.75 246.67 317.61 235.43 331.12 223.9 344.22 212.35 356.87 201.04 369.02 190.21 380.65 180.05 391.75 170.73 407.36 158.63 412.39 154.93" stroke-dasharray="1 6" transform="rotate(37.407407407407405, 400, 400)" opacity="0.40"></path><path d="M417.05 167.16Q431.23 174.06 445.09 181.87 458.55 190.54 471.57 200 484.07 210.13 496.01 220.77 507.37 231.72 518.13 242.76 528.27 253.66 537.81 264.21 546.78 274.18 555.21 283.38 563.16 291.67 570.7 298.94 577.9 305.14 584.87 310.27 575.57 324.2 567.24 338.14 560.6 352.07 556.22 366.01 554.47 379.95 555.49 393.88 559.21 407.82 565.3 421.75 573.25 435.69 582.37 449.63 591.89 463.56 600.99 477.5 608.89 491.44 614.92 505.37 618.56 519.31 619.51 533.25 606.63 542.82 593.12 550.96 579.03 557.56 564.45 562.6 549.46 566.16 534.14 568.37 518.61 569.44 502.94 569.67 487.25 569.39 471.61 568.95 456.13 568.74 440.89 569.13 425.94 570.46 411.36 573.04 397.2 577.1 383.5 582.82 374.61 577.27 365.88 573.35 357.22 570.91 348.56 569.68 339.82 569.37 330.93 569.63 321.84 570.07 312.48 570.33 302.83 570.04 292.84 568.87 282.5 566.54 271.79 562.85 260.71 557.66 249.28 550.92 237.5 542.63 225.42 532.93 225.06 519 223.66 505.07 221.36 491.13 218.34 477.2 214.86 463.27 211.22 449.34 207.73 435.41 204.69 421.48 202.36 407.55 200.94 393.62 200.55 379.69 201.22 365.76 202.89 351.83 205.43 337.9 208.62 323.97 212.17 310.04 225.74 305.01 239.46 298.91 253.29 291.74 267.19 283.55 281.08 274.43 294.91 264.53 308.61 254.03 322.12 243.16 335.38 232.13 348.33 221.16 360.91 210.49 373.07 200.31 384.79 190.78 396.04 182.03 411.92 170.66 417.05 167.16" stroke-dasharray="7 10" transform="rotate(41.148148148148145, 400, 400)" opacity="0.44"></path><path d="M420.4 179.39Q433.08 185.87 445.38 193.17 457.26 201.26 468.69 210.09 479.63 219.56 490.05 229.53 499.96 239.85 509.34 250.33 518.22 260.79 526.62 271.02 534.57 280.84 542.11 290.07 549.31 298.57 556.23 306.2 562.95 312.9 569.54 318.63 561.25 331.78 554.08 344.94 548.57 358.1 545.13 371.25 544.04 384.41 545.36 397.57 549.01 410.72 554.7 423.88 562 437.04 570.37 450.2 579.16 463.35 587.71 476.51 595.37 489.67 601.57 502.83 605.82 515.98 607.82 529.14 596.33 536.91 584.25 543.34 571.62 548.41 558.5 552.16 544.94 554.69 531.03 556.16 516.82 556.79 502.4 556.82 487.84 556.54 473.22 556.27 458.63 556.31 444.12 556.96 429.78 558.5 415.65 561.17 401.81 565.16 388.29 570.6 372.26 562.11 356.09 557.48 339.12 557.06 321.39 557.48 311.99 557.41 302.26 556.71 292.19 555.15 281.78 552.5 271.03 548.62 259.96 543.41 248.6 536.85 236.97 528.95 236.16 515.79 234.42 502.64 231.89 489.49 228.76 476.33 225.28 463.18 221.69 450.02 218.28 436.87 215.3 423.71 212.97 410.56 211.49 397.41 210.95 384.25 211.39 371.1 212.79 357.95 215.04 344.79 217.97 331.64 221.35 318.49 234.1 312.86 247.02 306.26 260.09 298.71 273.25 290.3 286.47 281.14 299.69 271.38 312.86 261.18 325.92 250.75 338.82 240.26 351.49 229.93 363.9 219.92 375.99 210.4 387.71 201.5 399.04 193.33 415.17 182.67 420.4 179.39" stroke-dasharray="9 3" transform="rotate(44.888888888888886, 400, 400)" opacity="0.47"></path><path d="M422.21 191.61Q433.35 197.67 444.11 204.47 454.46 211.99 464.39 220.19 473.87 228.99 482.92 238.27 491.53 247.93 499.72 257.8 507.52 267.74 514.94 277.57 522.04 287.13 528.86 296.27 535.45 304.84 541.88 312.72 548.2 319.82 554.49 326.08 547.28 338.43 541.24 350.78 536.79 363.14 534.21 375.49 533.69 387.84 535.26 400.2 538.8 412.55 544.09 424.9 550.78 437.25 558.41 449.61 566.48 461.96 574.45 474.31 581.79 486.67 588.02 499.02 592.7 511.38 595.54 523.73 585.34 529.8 574.62 534.69 563.39 538.44 551.69 541.11 539.57 542.82 527.06 543.73 514.23 544.04 501.14 543.98 487.83 543.78 474.38 543.7 460.84 543.99 447.28 544.88 433.76 546.6 420.33 549.33 407.05 553.22 393.97 558.37 379.04 550.18 363.69 545.37 347.26 544.5 329.99 544.64 320.82 544.68 311.34 544.32 301.54 543.33 291.43 541.53 281.02 538.75 270.34 534.89 259.41 529.87 248.26 523.67 247.03 511.32 244.99 498.97 242.28 486.61 239.09 474.26 235.63 461.91 232.12 449.55 228.81 437.2 225.9 424.85 223.6 412.5 222.06 400.15 221.38 387.79 221.61 375.44 222.73 363.09 224.66 350.74 227.29 338.39 230.42 326.03 242.31 319.87 254.4 312.86 266.64 305.06 279.02 296.56 291.49 287.48 304.01 277.96 316.54 268.16 329.04 258.23 341.46 248.35 353.74 238.67 365.85 229.34 377.73 220.49 389.34 212.22 400.65 204.63 416.91 194.68 422.21 191.61" stroke-dasharray="9 3" transform="rotate(48.629629629629626, 400, 400)" opacity="0.51"></path><path d="M422.34 203.83Q431.99 209.48 441.28 215.78 450.21 222.73 458.76 230.29 466.96 238.41 474.79 247 482.29 255.97 489.46 265.19 496.34 274.54 502.97 283.88 509.37 293.08 515.6 302 521.71 310.51 527.74 318.5 533.75 325.88 539.8 332.55 533.68 344.08 528.74 355.6 525.26 367.13 523.46 378.66 523.43 390.18 525.17 401.71 528.59 413.24 533.49 424.77 539.57 436.29 546.5 447.82 553.86 459.35 561.23 470.88 568.18 482.41 574.3 493.93 576.48 513.5 564.25 525.11 554.35 527.74 544.01 529.54 533.27 530.62 522.17 531.15 510.73 531.28 498.99 531.2 487.01 531.13 474.82 531.26 462.47 531.79 450.02 532.9 437.51 534.76 424.99 537.53 412.51 541.29 400.11 546.15 385.89 538.27 371.08 533.36 355.03 532.05 338.15 531.86 329.2 531.92 319.97 531.76 310.45 531.19 300.67 530.03 290.63 528.14 280.37 525.41 269.9 521.73 259.26 517.06 257.65 505.54 255.37 494.01 252.54 482.48 249.33 470.95 245.92 459.42 242.52 447.89 239.32 436.36 236.51 424.83 234.25 413.3 232.67 401.78 231.86 390.25 231.87 378.72 232.71 367.19 234.31 355.66 236.6 344.14 239.42 332.61 250.44 326.02 261.64 318.73 273.02 310.8 284.55 302.35 296.2 293.47 307.94 284.3 319.75 274.97 331.58 265.62 343.39 256.39 355.15 247.39 366.82 238.75 378.35 230.58 389.7 222.95 400.84 215.93 417.04 206.69 422.34 203.83" stroke-dasharray="11 1" transform="rotate(52.37037037037037, 400, 400)" opacity="0.54"></path><path d="M420.78 216.06Q429.04 221.28 436.99 227.09 444.65 233.47 452.01 240.4 459.08 247.84 465.88 255.73 472.44 263.98 478.77 272.51 484.91 281.21 490.89 289.99 496.74 298.73 502.5 307.31 508.21 315.63 513.92 323.58 519.68 331.06 525.52 338.01 520.48 348.7 516.57 359.38 513.99 370.06 512.86 380.75 513.24 391.43 515.11 402.12 518.38 412.8 522.88 423.48 528.39 434.17 534.64 444.85 541.3 455.54 548.05 466.22 554.54 476.91 560.46 487.59 563.5 505.24 553.2 514.68 544.52 516.43 535.46 517.57 526.05 518.21 516.29 518.49 506.21 518.54 495.84 518.54 485.2 518.63 474.33 518.97 463.26 519.72 452.03 521.02 440.67 522.99 429.23 525.75 417.74 529.37 406.24 533.92 392.44 526.41 377.96 521.45 362.24 519.73 345.73 519.18 337.02 519.19 328.06 519.12 318.86 518.81 309.44 518.12 299.82 516.91 290.02 515.07 280.05 512.52 269.95 509.17 268.03 498.48 265.55 487.79 262.65 477.1 259.46 466.41 256.15 455.73 252.88 445.04 249.82 434.35 247.11 423.67 244.9 412.98 243.3 402.29 242.38 391.6 242.19 380.92 242.75 370.23 244.02 359.54 245.94 348.86 248.41 338.17 258.52 331.3 268.82 323.87 279.29 315.98 289.92 307.71 300.7 299.16 311.59 290.44 322.58 281.66 333.64 272.95 344.74 264.39 355.84 256.11 366.92 248.17 377.94 240.68 388.87 233.68 399.67 227.23 415.55 218.71 420.78 216.06" stroke-dasharray="5 11" transform="rotate(56.111111111111114, 400, 400)" opacity="0.58"></path><path d="M417.64 228.28Q431.34 238.66 444.35 250.53 450.49 257.3 456.45 264.47 462.24 271.99 467.89 279.8 473.43 287.82 478.89 295.96 484.3 304.14 489.68 312.26 495.08 320.25 500.53 328 506.88 343.88 504.75 362.14 502.95 371.97 502.4 381.8 503.12 391.63 505.06 401.46 508.16 411.29 512.28 421.12 517.24 430.95 522.83 440.78 528.81 450.6 534.93 460.43 540.92 470.26 546.53 480.09 542.05 500.28 526.09 505.31 509.28 505.78 491.6 506 482.29 506.27 472.74 506.83 462.99 507.78 453.04 509.23 442.93 511.28 432.68 514 413.8 517.51 398.45 514.21 383.99 509.92 368.82 507.36 352.51 506.69 335.55 506.45 326.72 506.28 317.72 505.89 308.55 505.17 299.25 504.01 283.99 496.29 275.55 480.4 272.63 470.57 269.51 460.74 266.33 450.9 263.21 441.07 260.3 431.24 257.72 421.41 255.58 411.57 253.97 401.74 252.95 391.91 252.58 382.07 252.87 372.24 253.8 362.41 255.34 352.57 257.42 342.74 266.62 335.75 275.99 328.37 285.53 320.65 295.23 312.7 305.08 304.59 315.07 296.42 325.17 288.27 335.37 280.23 345.64 272.4 355.97 264.83 366.33 257.61 376.69 250.8 387.03 244.43 397.32 238.54 412.58 230.72 417.64 228.28" stroke-dasharray="11 3" transform="rotate(59.85185185185185, 400, 400)" opacity="0.61"></path><path d="M413.16 240.52Q424.95 249.73 436.1 260.69 446.75 273.24 457.04 287.09 467.16 301.83 477.28 316.94 487.62 331.87 498.39 346.05 493.26 363.98 492.09 381.91 495.03 399.84 501.67 417.77 511.06 435.7 521.87 453.63 532.55 471.55 541.58 489.48 529.27 491.84 515.94 492.87 501.59 493.22 486.24 493.63 469.96 494.84 452.84 497.53 435.03 502.27 416.65 509.47 403.39 502.46 389.29 497.89 374.39 495.34 358.73 494.22 342.38 493.84 325.45 493.47 308.06 492.37 290.34 489.9 285.36 471.96 279.47 454.03 273.51 436.09 268.33 418.15 264.67 400.21 263.04 382.27 263.69 364.33 266.52 346.39 283.23 332.29 300.57 317.4 318.49 302.29 336.91 287.52 355.72 273.59 374.81 260.94 394.01 249.86 413.16 240.52 413.16 240.52 413.16 240.52" stroke-dasharray="8 7" transform="rotate(63.592592592592595, 400, 400)" opacity="0.65"></path><path d="M407.69 252.74Q417.82 261.06 427.58 270.86 437.09 282.04 446.47 294.39 455.87 307.64 465.42 321.4 475.29 335.26 485.61 348.79 482.11 364.99 481.91 381.19 485.01 397.39 491.06 413.59 499.35 429.79 508.89 445.99 517.56 470.98 505.11 480.38 492.86 480.77 479.79 481.47 465.92 483.04 451.31 485.94 436.02 490.58 420.14 497.24 407.1 490.75 393.37 486.27 378.99 483.49 364.02 482.02 348.54 481.37 332.65 480.99 316.45 480.34 300.04 478.89 294.98 462.68 289.34 446.47 283.77 430.26 278.93 414.05 275.4 397.84 273.59 381.63 273.71 365.41 275.75 349.2 290.61 335.73 306.03 321.88 321.99 308.1 338.44 294.81 355.33 282.37 372.57 271.09 390.06 261.18 407.69 252.74 407.69 252.74 407.69 252.74" stroke-dasharray="8 0" transform="rotate(67.33333333333333, 400, 400)" opacity="0.68"></path><path d="M401.63 264.96Q410.46 272.4 419.13 281.06 427.73 290.89 436.37 301.76 445.16 313.46 454.18 325.75 463.56 338.32 473.38 350.88 471.29 365.35 471.85 379.83 475 394.31 480.46 408.78 487.68 423.26 496 437.74 504.02 459.85 493.68 467.96 483.31 468.52 472.3 469.54 460.66 471.4 448.39 474.44 435.52 478.92 422.11 485.02 409.44 479.07 396.24 474.73 382.56 471.82 368.47 470.05 354.03 469.09 339.32 468.56 324.42 468.08 309.42 467.25 304.44 452.76 299.13 438.27 294 423.78 289.54 409.29 286.17 394.81 284.22 380.32 283.88 365.83 285.17 351.34 298.21 338.81 311.72 326.23 325.7 313.91 340.14 302.15 355.01 291.2 370.25 281.28 385.82 272.51 401.63 264.96 401.63 264.96 401.63 264.96" stroke-dasharray="7 4" transform="rotate(71.07407407407408, 400, 400)" opacity="0.72"></path><path d="M395.45 277.19Q403.26 283.75 411.07 291.3 418.94 299.81 426.95 309.2 435.16 319.34 443.64 330.07 452.47 341.19 461.7 352.5 460.77 365.26 461.9 378.03 465 390.8 469.85 403.57 476.07 416.34 483.2 429.11 481.73 452.54 463.89 457.86 454.24 459.95 444.1 463.04 433.48 467.28 422.4 472.8 410.33 467.41 397.89 463.3 385.13 460.32 372.1 458.32 358.86 457.06 345.48 456.31 332 455.79 318.5 455.23 313.74 442.45 308.86 429.67 304.21 416.89 300.14 404.11 296.98 391.33 294.95 378.55 294.22 365.77 294.83 353 306.08 341.69 317.72 330.54 329.76 319.77 342.18 309.56 354.99 300.1 368.16 291.5 388.55 280.52 395.45 277.19" stroke-dasharray="4 1" transform="rotate(74.81481481481481, 400, 400)" opacity="0.75"></path><path d="M389.62 289.41Q396.62 295.1 403.71 301.58 410.93 308.81 418.33 316.75 425.95 325.34 433.84 334.47 442.03 344.02 450.56 353.86 450.54 364.94 452.05 376.03 455.01 387.11 459.24 398.19 464.51 409.28 470.51 420.36 469.49 441.06 454.7 446.44 446.8 448.69 438.55 451.73 429.95 455.67 421 460.57 409.78 455.78 398.35 451.95 386.73 449.01 374.97 446.85 363.1 445.35 351.17 444.33 339.22 443.65 327.3 443.11 322.9 432.02 318.51 420.93 314.38 409.83 310.75 398.74 307.83 387.65 305.79 376.55 304.75 365.46 304.77 354.37 314.3 344.51 324.13 334.92 334.27 325.74 344.72 317.09 355.49 309.07 366.57 301.75 383.78 292.3 389.62 289.41" stroke-dasharray="5 10" transform="rotate(78.55555555555556, 400, 400)" opacity="0.79"></path><path d="M384.57 301.63Q397.38 312.18 410.65 324.45 417.61 331.51 424.81 339.04 432.25 346.96 439.95 355.2 440.58 364.63 442.29 374.05 445.02 383.48 448.64 392.9 453.01 402.33 457.92 411.75 457.07 429.9 444.92 435.31 431.81 440.84 418 448.35 407.93 444.17 397.75 440.7 387.49 437.89 377.17 435.67 366.82 433.98 356.47 432.74 339.04 426.78 328.11 412.29 324.53 402.86 321.36 393.43 318.72 384 316.74 374.56 315.49 365.13 315.03 355.7 322.92 347.43 331.02 339.46 339.34 331.88 347.91 324.75 356.71 318.13 365.75 312.05 379.8 304.09 384.57 301.63" stroke-dasharray="8 8" transform="rotate(82.29629629629629, 400, 400)" opacity="0.82"></path><path d="M380.68 313.87Q392.05 322.27 403.97 332.31 416.53 343.88 429.83 356.75 432.61 372.35 438.03 387.94 445.46 403.53 454 419.11 444.54 421.19 434.72 424.49 424.45 429.38 413.64 436.12 396.27 429.54 378.83 424.79 361.44 421.61 344.22 419.62 337.66 404.02 331.96 388.42 327.8 372.82 325.66 357.21 338.46 344.25 351.86 332.57 373.3 318.13 380.68 313.87" stroke-dasharray="3 10" transform="rotate(86.03703703703704, 400, 400)" opacity="0.86"></path><path d="M378.27 326.09Q388.08 332.69 398.31 340.37 409 349.08 420.16 358.75 423 371.14 427.43 383.53 432.58 403.3 424.34 413.97 416.42 418.34 408.24 423.89 394.14 418.46 380.1 414.21 366.18 411.02 352.44 408.74 347.17 396.34 342.57 383.94 338.98 371.55 336.69 359.15 346.5 349.4 356.67 340.58 372.76 329.45 378.27 326.09" stroke-dasharray="4 7" transform="rotate(89.77777777777777, 400, 400)" opacity="0.89"></path><path d="M377.5 338.32Q385.46 343.17 393.67 348.64 402.15 354.73 410.9 361.4 413.44 370.64 416.82 379.88 414.23 401.16 402.22 411.67 391.64 407.47 381.16 403.94 370.79 401.04 360.56 398.7 356.65 389.45 353.17 380.21 352.73 362.97 362.4 348.81 373.67 340.78 377.5 338.32" stroke-dasharray="3 5" transform="rotate(93.51851851851852, 400, 400)" opacity="0.93"></path><path d="M378.43 350.54Q389.98 357.16 402 364.9 406.21 377.16 411.63 389.44 403.84 393.87 396.03 399.44 382.2 393.99 368.65 389.67 363.78 377.39 359.99 365.12 373.74 353.91 378.43 350.54" stroke-dasharray="3 1" transform="rotate(97.25925925925925, 400, 400)" opacity="0.96"></path></g></svg>