<svg xmlns="http://www.w3.org/2000/svg" version="1.1" xmlns:xlink="http://www.w3.org/1999/xlink" xmlns:svgjs="http://svgjs.dev/svgjs" viewBox="0 0 800 800" opacity="0.18"><g stroke-width="1" stroke="#8796c5" fill="none"><path d="M1123.8107718350052 -882.9136103158617C1366.367420007763 -308.6408300145954 1337.6274788890432 1671.6022918989233 1026.7334187164606 1945.3144181624998C715.8393585438776 2219.0265444260763 -125.92406882063733 1005.1773760505703 -368.4807169933953 430.904595749304C-611.0373651661532 -143.36818455196249 -448.43255268535927 -537.4828010200038 -137.5384925127762 -811.1949272835802C173.35556765980664 -1084.9070535471567 881.2541236622474 -1457.186390617128 1123.8107718350052 -882.9136103158617C1366.367420007763 -308.6408300145954 1337.6274788890432 1671.6022918989233 1026.7334187164606 1945.3144181624998 "></path><path d="M1114.4106628549544 -866.2524049021106C1353.8172246878066 -299.4377126567051 1325.4505295576419 1655.0879661150798 1018.5940545821052 1925.2453894401683C711.7375796065685 2195.4028127652573 -119.09385519477075 997.3179193037181 -358.5004170276227 430.5032270583124C-597.9069788604746 -136.3114651870933 -437.41391719111965 -525.3077100126925 -130.55744221558314 -795.465133337781C176.29903275995332 -1065.6225566628693 875.0041010221023 -1433.0670971475165 1114.4106628549544 -866.2524049021106C1353.8172246878066 -299.4377126567051 1325.4505295576419 1655.0879661150798 1018.5940545821052 1925.2453894401683 "></path><path d="M1105.0105233573254 -849.5911079356252C1341.2669988502712 -290.23450374608 1313.2735497086614 1638.5737318839706 1010.4546599301716 1905.1764522705707C707.6357701516815 2171.779172657172 -112.26367208648219 989.4585541096008 -348.5201475794282 430.10194992005563C-584.7766230723743 -129.2546542694895 -426.3953122144581 -513.1325274526467 -123.5764224359682 -779.7352478392472C179.24246734252176 -1046.3379682258478 868.7540478643796 -1408.9477121251703 1105.0105233573254 -849.5911079356252C1341.2669988502712 -290.23450374608 1313.2735497086614 1638.5737318839706 1010.4546599301716 1905.1764522705707 "></path><path d="M1095.6103838596964 -832.9299025218743C1328.7167730127367 -281.03138638818973 1301.0965698596815 1622.059406100127 1002.315265278238 1885.1074235482397C703.5339606967946 2148.155440996352 -105.43348897819374 981.5990973627486 -338.53987813123376 429.700581229064C-571.6462672842738 -122.19793490462052 -415.3767072377966 -500.9574364453355 -116.59540265635314 -764.0054538934478C182.18590192509032 -1027.0534713415605 862.5039947066564 -1384.8284186555586 1095.6103838596964 -832.9299025218743C1328.7167730127367 -281.03138638818973 1301.0965698596815 1622.059406100127 1002.315265278238 1885.1074235482397 "></path><path d="M1086.2102138444893 -816.2685750378107C1316.1665166576236 -271.8281469599867 1288.9195594931234 1605.5452023865964 994.1758401087263 1865.0385168962207C699.4321207243295 2124.5318314058454 -98.6033363874833 973.7397626862094 -328.5596392006174 429.2993346083854C-558.5159420137516 -115.1410934694386 -404.3581327787132 -488.7822233677116 -109.61441339431633 -748.2755378773361C185.12930599008064 -1007.7688523869605 856.2539110313553 -1360.7090031156345 1086.2102138444893 -816.2685750378107C1316.1665166576236 -271.8281469599867 1288.9195594931234 1605.5452023865964 994.1758401087263 1865.0385168962207 "></path><path d="M1076.8101048644387 -799.6074001416378C1303.6163213376667 -262.62506011967434 1276.7426101617211 1589.0308460851743 986.0364759743711 1844.969457656311C695.3303417870206 2100.908069227448 -91.77312276161672 965.8802754217795 -318.57933923484484 428.89793539981565C-545.3855557080731 -108.08440462214753 -393.33949728447357 -476.60716287797834 -102.63336309712327 -732.5457744491148C188.0727710902272 -988.4843860202512 850.0038883912105 -1336.5897401636012 1076.8101048644387 -799.6074001416378C1303.6163213376667 -262.62506011967434 1276.7426101617211 1589.0308460851743 986.0364759743711 1844.969457656311 "></path><path d="M1067.4099653668097 -782.9463167981992C1291.0660955001322 -253.42206483209657 1264.5656303127412 1572.5163982310182 977.8970813224375 1824.9003068636666C691.2285323321335 2077.2842154963155 -84.94293965332815 958.0206966046144 -308.5990697866504 428.496444638512C-532.2551999199726 -101.02780732759084 -382.320892307812 -464.4321939409796 -95.65234331750821 -716.816102573628C191.01620567279554 -969.2000112062765 843.7538352334875 -1312.4705687643018 1067.4099653668097 -782.9463167981992C1291.0660955001322 -253.42206483209657 1264.5656303127412 1572.5163982310182 977.8970813224375 1824.9003068636666 "></path><path d="M1058.0098258691808 -766.2850503492919C1278.5158696625967 -244.21888643904958 1252.388650463761 1556.002133482331 969.757686670504 1804.8313391764918C687.1267228772465 2053.6605448706523 -78.1127565450397 950.1613008929189 -298.6188003384559 428.09513698267665C-519.1248441318721 -93.97102692756516 -371.3022873311505 -452.25704189851194 -88.67132353789316 -701.0862475926724C193.9596402553641 -949.9154532868329 837.5037820757645 -1288.351214259534 1058.0098258691808 -766.2850503492919C1278.5158696625967 -244.21888643904958 1252.388650463761 1556.002133482331 969.757686670504 1804.8313391764918 "></path><path d="M1048.6096863715518 -749.6238754531189C1265.9656438250622 -235.01579959873743 1240.211670614781 1539.4877771809092 961.6182920185704 1784.7622799365818C683.0249134223595 2030.0367826922543 -71.28257343675114 942.3018136284891 -288.63853089026145 427.6937377741074C-505.99448834377176 -86.91433808027409 -360.283682354489 -440.0819814087788 -81.69030375827822 -685.3564841644511C196.90307483793254 -930.6309869201236 831.2537289180416 -1264.2319513075004 1048.6096863715518 -749.6238754531189C1265.9656438250622 -235.01579959873743 1240.211670614781 1539.4877771809092 961.6182920185704 1784.7622799365818 "></path><path d="M1039.2095468739228 -732.9626395217898C1253.4154179875275 -225.81265172326903 1228.0346907658009 1522.9734819146438 953.4788973666368 1764.693281731828C678.9231039674726 2006.4130815490125 -64.45239032846257 934.4423873992146 -278.658261442067 427.2923996006941C-492.8641325556714 -79.85758819782677 -349.2650773778274 -427.9068598838893 -74.70928397866328 -669.6266597010738C199.84650942050098 -911.3464595182581 825.0036757603186 -1240.1126273203108 1039.2095468739228 -732.9626395217898C1253.4154179875275 -225.81265172326903 1228.0346907658009 1522.9734819146438 953.4788973666368 1764.693281731828 "></path><path d="M1029.809407376294 -716.3013120377263C1240.8651921499925 -216.60941229506602 1215.857710916821 1506.4592782011127 945.3395027147033 1744.624375079809C674.8212945125856 1982.7894719585056 -57.62220722017412 926.5830527226753 -268.6779919938726 426.89115298001525C-479.733776767571 -72.8007467626453 -338.24647240116593 -415.73164680626553 -67.72826419904823 -653.8967436849618C202.78994400306942 -892.0618405636583 818.7536226025957 -1215.9932117803864 1029.809407376294 -716.3013120377263C1240.8651921499925 -216.60941229506602 1215.857710916821 1506.4592782011127 945.3395027147033 1744.624375079809 "></path><path d="M1020.4092983962435 -699.6401066239753C1228.3149968300356 -207.40629493717552 1203.680761585419 1489.9449524172692 937.2001385803478 1724.5553463574774C670.7195155752765 1959.1657402976857 -50.79199359430754 918.7235959758236 -258.69769202809994 426.4897842890239C-466.60339046189245 -65.74402739777588 -327.22783690692626 -403.55655579895415 -60.74721390185516 -638.1669497391625C205.733409103216 -872.7773436793709 812.5035999624508 -1191.8739183107748 1020.4092983962435 -699.6401066239753C1228.3149968300356 -207.40629493717552 1203.680761585419 1489.9449524172692 937.2001385803478 1724.5553463574774 "></path><path d="M1011.0091283810364 -682.9789622453804C1215.7647404749227 -198.20323861444126 1191.5037512188608 1473.4305655982694 929.0607134108363 1704.4862565999902C666.6176756028115 1935.5419476017105 -43.9618410035971 910.8640781938157 -248.7174530974836 426.08835456287625C-453.47306519137015 -58.68736906806271 -316.2092624478429 -391.381525826799 -53.76622463981823 -622.4372168285195C208.67681316820642 -853.4929078302398 806.2535162871495 -1167.7546858763196 1011.0091283810364 -682.9789622453804C1215.7647404749227 -198.20323861444126 1191.5037512188608 1473.4305655982694 929.0607134108363 1704.4862565999902 "></path><path d="M1001.6090194009855 -666.3177568316294C1203.214545154966 -189.00012125655076 1179.326801887459 1456.9162398144258 920.9213492764809 1684.4172278776582C662.5158966655026 1911.918215940891 -37.13162737773041 903.0046214469635 -238.73715313171107 425.6869858718849C-440.3426788856916 -51.63064970319351 -305.1906269536032 -379.20643481948775 -46.78517434262517 -606.70742288272C211.620278268353 -834.2084109459524 800.0034936470049 -1143.635392406708 1001.6090194009855 -666.3177568316294C1203.214545154966 -189.00012125655076 1179.326801887459 1456.9162398144258 920.9213492764809 1684.4172278776582 "></path><path d="M992.2088799033565 -649.6566124530345C1190.6643193174311 -179.79706493381673 1167.1498220384788 1440.401852995426 912.7819546245473 1664.3481381201705C658.4140872106157 1888.294423244915 -30.30144426944196 895.1451036649551 -228.7568836835166 425.2855561457375C-427.21232309759125 -44.57399137348057 -294.1720219769417 -367.0314048473326 -39.804154563010115 -590.977689972077C214.56371285092143 -814.9239750968214 793.753440489282 -1119.5161599722524 992.2088799033565 -649.6566124530345C1190.6643193174311 -179.79706493381673 1167.1498220384788 1440.401852995426 912.7819546245473 1664.3481381201705 "></path><path d="M982.8087404057276 -632.9954070392836C1178.1140934798964 -170.59394757592622 1154.9728421894988 1423.8875272115824 904.6425599726138 1644.279109397839C654.3122777557287 1864.6706915840955 -23.471261161153507 887.2856469181033 -218.77661423532214 424.88418745474587C-414.08196730949084 -37.517272008611144 -283.15341700028017 -354.85631384002136 -32.82313478339506 -575.2478960262777C217.50714743348988 -795.6394782125341 787.5033873315588 -1095.396866502641 982.8087404057276 -632.9954070392836C1178.1140934798964 -170.59394757592622 1154.9728421894988 1423.8875272115824 904.6425599726138 1644.279109397839 "></path><path d="M973.4086009080986 -616.3341405903763C1165.5638676423614 -161.39076918287947 1142.7958623405184 1407.3732624628951 896.5031653206802 1624.2101417106637C650.2104683008415 1841.0470209584319 -16.64107805286494 879.4262512064074 -208.79634478712768 424.48287979891074C-400.9516115213904 -30.460491608585926 -272.1348120236187 -342.6811617975537 -25.842115003780236 -559.5180410453221C220.45058201605832 -776.3549202930905 781.2533341738358 -1071.2775119978728 973.4086009080986 -616.3341405903763C1165.5638676423614 -161.39076918287947 1142.7958623405184 1407.3732624628951 896.5031653206802 1624.2101417106637 "></path><path d="M964.0084614104696 -599.6728131063127C1153.0136418048264 -152.1875297546767 1130.6188824915384 1390.859058749364 888.3637706687466 1604.1412350586443C646.1086588459546 1817.4234113679245 -9.810894944576376 871.5669165298677 -198.81607533893322 424.08163317823187C-387.82125573329 -23.40365017340423 -261.11620704695713 -330.50594871992985 -18.861095224165183 -543.7881250292103C223.39401659862676 -757.0703013384907 775.0032810161129 -1047.158096457949 964.0084614104696 -599.6728131063127C1153.0136418048264 -152.1875297546767 1130.6188824915384 1390.859058749364 888.3637706687466 1604.1412350586443 "></path><path d="M954.6081998425282 -583.0116382101398C1140.4632938969792 -142.9844429143643 1118.441780572246 1374.3447024479424 880.2242539465005 1584.0721758187346C642.0067273207551 1793.799649189527 -2.98083390660031 863.7074292654379 -188.83592796105125 423.68023396966237C-374.6910220155021 -16.34696132611316 -250.09772414060808 -318.3308882301967 -11.88019751486263 -528.058361600989C226.3373291108827 -737.7858349717815 768.7531057880774 -1023.0388335059152 954.6081998425282 -583.0116382101398C1140.4632938969792 -142.9844429143643 1118.441780572246 1374.3447024479424 880.2242539465005 1584.0721758187346 "></path><path d="M945.2081518976338 -566.3504633139669C1127.9131596121788 -133.78135607405193 1106.2648922760002 1357.8303461465207 872.0849508473016 1564.003116578825C637.9050094186025 1770.175887011129 3.849440754422517 855.8479420010076 -178.85556696012242 423.27883476109287C-361.56057467466735 -9.290272478821862 -239.0790276112122 -306.15582774046356 -4.899086182513315 -512.3285981727679C229.28085524618564 -718.5013686050722 762.5031441830888 -998.9195705538817 945.2081518976338 -566.3504633139669C1127.9131596121788 -133.78135607405193 1106.2648922760002 1357.8303461465207 872.0849508473016 1564.003116578825 "></path><path d="M935.8079208472705 -549.6892884177939C1115.3628422219092 -124.57826923373966 1094.0878208742859 1341.315989845099 863.9454646426336 1543.9340573389159C633.8031084109812 1746.5521248327318 10.679532309976594 847.988454736578 -168.87538906466233 422.8774355525236C-348.4303104393013 -2.233583631530564 -228.06051418728504 -293.9807672507302 2.0818420443672494 -496.5988347445466C232.2241982760197 -699.216902238363 756.2529994726315 -974.8003076018482 935.8079208472705 -549.6892884177939C1115.3628422219092 -124.57826923373966 1094.0878208742859 1341.315989845099 863.9454646426336 1543.9340573389159 "></path><path d="M926.4078729023759 -533.0280830040429C1102.8127079371088 -115.37515187584916 1081.91093257804 1324.8016640612555 855.8061615434344 1523.865028616584C629.7013905088284 1722.9283931719124 17.509806970999534 840.1289979897258 -158.8950280637335 422.4760668615322C-335.2998630984665 4.823135733338404 -217.04181765788917 -281.80567624341893 9.062953376716678 -480.8690407987473C235.16772441132252 -679.9324053540756 750.0030378676429 -950.6810141322366 926.4078729023759 -533.0280830040429C1102.8127079371088 -115.37515187584916 1081.91093257804 1324.8016640612555 855.8061615434344 1523.865028616584 "></path><path d="M917.0077334047471 -516.3669081078699C1090.262482099574 -106.17206503553689 1069.73395272906 1308.2873077598338 847.6667668915009 1503.7959693766743C625.5995810539416 1699.3046309935144 24.3399900792881 832.2695107252955 -148.91475861553903 422.0746676529627C-322.1695073103661 11.879824580629474 -206.02321268122762 -269.6306157536858 16.04397315633173 -465.1392773705261C238.11115899389097 -660.6479389873664 743.7529847099199 -926.561751180203 917.0077334047471 -516.3669081078699C1090.262482099574 -106.17206503553689 1069.73395272906 1308.2873077598338 847.6667668915009 1503.7959693766743 "></path><path d="M907.6075328719619 -499.7056721765408C1077.712195226883 -96.96891716006837 1057.556911844924 1291.7730124935683 839.527311204411 1483.7269711719205C621.4977105638982 1675.6809298502726 31.1701121524203 824.4100844960219 -138.93455020250082 421.67332947954924C-309.03921255742193 18.936574463076795 -195.00466873972232 -257.4554942287963 23.02493190079042 -449.40945290714853C241.05453254130316 -641.3634115855009 737.5028705170407 -902.4424271930133 907.6075328719619 -499.7056721765408C1077.712195226883 -96.96891716006837 1057.556911844924 1291.7730124935683 839.527311204411 1483.7269711719205 "></path><path d="M898.2073933743329 -483.0444362452116C1065.161969389348 -87.76576928459974 1045.3799319959437 1275.258717227303 831.3879165524775 1463.657972967167C617.3959011090114 1652.0572287070318 38.00029526070887 816.5506582667479 -128.95428075430635 421.271991306136C-295.9088567693216 25.993324345524343 -183.98606376306083 -245.28037270390678 30.00595168040536 -433.6796284437712C243.9979671238716 -622.0788841836354 731.2528173593178 -878.3231032058235 898.2073933743329 -483.0444362452116C1065.161969389348 -87.76576928459974 1045.3799319959437 1275.258717227303 831.3879165524775 1463.657972967167 "></path><path d="M888.8072843942821 -466.3831697963044C1052.6117740693915 -78.5625908915531 1033.2029826645417 1258.7444524786151 823.248552418122 1443.5890052799919C613.2941221717024 1628.4335580813681 44.830508886575444 808.6912625550524 -118.97398078853377 420.87068365030086C-282.77847046364303 33.05010474554956 -172.96742826882115 -233.10522066143926 36.98700197759854 -417.94977346281553C246.94143222401817 -602.7943262641919 725.0027947191729 -854.2037487010556 888.8072843942821 -466.3831697963044C1052.6117740693915 -78.5625908915531 1033.2029826645417 1258.7444524786151 823.248552418122 1443.5890052799919 "></path><path d="M879.407114379075 -449.7219338649752C1040.0615177142784 -69.35944301608458 1021.0259722979836 1242.2301572123497 815.1091272486105 1423.520007075238C609.1922821992371 1604.8098569381264 51.660661477285885 800.8318363257783 -108.99374185791743 420.4693454768876C-269.64814519312074 40.10685462799711 -161.94885380973778 -220.93009913654987 43.96799123963547 -402.2199489994382C249.8848362890085 -583.5097988623264 718.7527110438718 -830.0844247138658 879.407114379075 -449.7219338649752C1040.0615177142784 -69.35944301608458 1021.0259722979836 1242.2301572123497 815.1091272486105 1423.520007075238 "></path><path d="M870.0070053990241 -433.0608200039585C1027.5113223943215 -60.15641721092834 1008.8490229665815 1225.7157398757722 806.9697631142549 1403.4508868001726C605.0905032619285 1581.186033724573 58.49087510315246 792.972288026192 -99.0134418921449 420.0678852331621C-256.5177588874422 47.16348244013216 -150.9302183154981 -208.75509968197275 50.94904153682853 -386.49024660637315C252.82830138915517 -564.2253935307734 712.502688403727 -805.9652227969887 870.0070053990241 -433.0608200039585C1027.5113223943215 -60.15641721092834 1008.8490229665815 1225.7157398757722 806.9697631142549 1403.4508868001726 "></path><path d="M860.6068659013952 -416.3995840726293C1014.9610965567867 -50.953269335459936 996.6720431176016 1209.2014446095068 798.8303684623215 1383.3818885954188C600.9886938070413 1557.5623325813312 65.32105821144103 785.1128617969182 -89.03317244395043 419.66654705974884C-243.38740309934178 54.22023232257925 -139.91161333883662 -196.57997815708336 57.93006131644347 -370.7604221429957C255.77173597172361 -544.940866128908 706.252635246004 -781.8458988097988 860.6068659013952 -416.3995840726293C1014.9610965567867 -50.953269335459936 996.6720431176016 1209.2014446095068 798.8303684623215 1383.3818885954188 "></path><path d="M851.2067264037664 -399.73840917645634C1002.4108707192518 -41.750182495147556 984.4950632686216 1192.6870883080846 790.690973810388 1363.3128293555092C596.8868843521545 1533.9385704029337 72.15124131972948 777.2533745324881 -79.05290299575597 419.26514785117934C-230.25704731124142 61.276921169870434 -128.89300836217507 -184.4049176673501 64.91108109605852 -355.0306587147745C258.71517055429206 -525.6563997621988 700.0025820882809 -757.7266358577652 851.2067264037664 -399.73840917645634C1002.4108707192518 -41.750182495147556 984.4950632686216 1192.6870883080846 790.690973810388 1363.3128293555092 "></path><path d="M841.8065869061375 -383.0770816923929C989.860644881717 -32.54694306694455 972.3180834196414 1176.1728845945536 782.5515791584544 1343.2439227034902C592.7850748972674 1510.3149608124268 78.98142442801804 769.3940398559487 -69.07263354756151 418.86390123050023C-217.12669152314095 68.33376260505213 -117.87440338551357 -172.22970458972623 71.89210087567346 -339.3007426986626C261.6586051368605 -506.3717808075989 693.7525289305581 -733.6072203178411 841.8065869061375 -383.0770816923929C989.860644881717 -32.54694306694455 972.3180834196414 1176.1728845945536 782.5515791584544 1343.2439227034902 "></path><path d="M832.4064779260866 -366.41590679621993C977.3104495617602 -23.343856226632283 960.1411340882394 1159.658528293132 774.4122150240992 1323.1748634635806C588.6832959599583 1486.6911986340288 85.81163805388462 761.5345525915186 -59.09233358178892 418.46250202193096C-203.99630521746246 75.3904514523432 -106.8557678912739 -160.05464409999308 78.87315117286664 -323.5709792704414C264.6020702370072 -487.0873144408897 687.5025062904133 -709.4879573658076 832.4064779260866 -366.41590679621993C977.3104495617602 -23.343856226632283 960.1411340882394 1159.658528293132 774.4122150240992 1323.1748634635806 "></path><path d="M823.0063079108795 -349.754731900047C964.7601932066473 -14.140769386320017 947.9641237216813 1143.1441719917104 766.2727898545872 1303.105804223671C584.5814559874934 1463.0674364556307 92.64179064459506 753.6750653270885 -49.11209465117258 418.06110281336123C-190.86597994694017 82.44714029963438 -95.83719343219047 -147.87958361025994 85.85414043490346 -307.8412158422202C267.5454743019975 -467.8028480741805 681.252422615112 -685.368694413774 823.0063079108795 -349.754731900047C964.7601932066473 -14.140769386320017 947.9641237216813 1143.1441719917104 766.2727898545872 1303.105804223671 "></path><path d="M813.6061989308287 -333.09346545113976C952.2099978866904 -4.937590993273261 935.7871743902792 1126.6299072430234 758.133425720232 1283.0368365364957C580.4796770501844 1439.4437658299676 99.47200427046164 745.8156696153928 -39.131794685399996 417.65979515752633C-177.73559364126163 89.50392069965983 -84.81855793795086 -135.7044315677923 92.83519073209663 -292.11136086126464C270.48893940214407 -448.51829015473686 675.0023999749671 -661.2493399090062 813.6061989308287 -333.09346545113976C952.2099978866904 -4.937590993273261 935.7871743902792 1126.6299072430234 758.133425720232 1283.0368365364957 "></path><path d="M804.2060289156216 -316.4322905549668C939.6597415315775 4.265495847039119 923.6101640237212 1110.1155509416014 749.9940005507201 1262.967777296586C576.3778370777195 1415.82000365157 106.30215686117208 737.9561823509628 -29.151555754783658 417.25839594895683C-164.60526837073934 96.56060954695101 -73.79998347886743 -123.52937107805906 99.81617999413345 -276.38159743304345C273.4323434671344 -429.2338237880277 668.7523162996661 -637.1300769569726 804.2060289156216 -316.4322905549668C939.6597415315775 4.265495847039119 923.6101640237212 1110.1155509416014 749.9940005507201 1262.967777296586 "></path><path d="M794.805919935571 -299.77096307090324C927.1095462116207 13.468735275242011 911.4332146923193 1093.6013472280704 741.8546364163649 1242.8988706445666C572.2760581404104 1392.196394061063 113.13237048703866 730.0968476744231 -19.17125578901107 416.85714932827796C-151.4748820650608 103.61745098213271 -62.781347984627814 -111.35415800043529 106.79723029132651 -260.6516814169315C276.37580856728096 -409.9492048334278 662.502293659521 -613.0106614170485 794.805919935571 -299.77096307090324C927.1095462116207 13.468735275242011 911.4332146923193 1093.6013472280704 741.8546364163649 1242.8988706445666 "></path><path d="M785.4057804379422 -283.1098186923084C914.5593203740859 22.671791597976153 899.2562348433389 1077.0869604090706 733.7152417644313 1222.8297808870789C568.1742486855235 1368.572601365087 119.96255359532722 722.2373298924149 -9.190986340816607 416.45571960213033C-138.34452627696044 110.67410931184565 -51.762743007966264 -99.17912802828027 113.77825007094157 -244.92194850628846C279.3192431498494 -390.66476898429676 656.2522405017983 -588.8914289825931 785.4057804379422 -283.1098186923084C914.5593203740859 22.671791597976153 899.2562348433389 1077.0869604090706 733.7152417644313 1222.8297808870789 "></path><path d="M776.0056409403132 -266.44852172582307C902.009094536551 31.875000508601033 887.079254994359 1060.5727261779616 725.5758471124977 1202.7608437174817C564.0724392306364 1344.9489612570019 126.79273670361567 714.3779646982975 0.7892831073778552 416.05444246387333C-125.21417048886002 117.73092022944934 -40.74413803130477 -87.00394546823452 120.75926985055662 -229.19206300775477C282.26267773241784 -371.380180547275 650.0021873440753 -564.7720439602471 776.0056409403132 -266.44852172582307C902.009094536551 31.875000508601033 887.079254994359 1060.5727261779616 725.5758471124977 1202.7608437174817 "></path><path d="M766.6055014426843 -249.78740786480637C889.458868699016 41.078026313757164 874.902275145379 1044.0583088413837 717.4364524605644 1182.6917234424159C559.9706297757494 1321.3251380434476 133.62291981190424 706.518416398711 10.769552555572318 415.6529822201476C-112.0838147007596 124.78754804158427 -29.725533054643222 -74.82894601365751 127.74028963017156 -213.46236061468971C285.2061123149863 -352.095775215722 643.7521341863524 -540.6528420433699 766.6055014426843 -249.78740786480637C889.458868699016 41.078026313757164 874.902275145379 1044.0583088413837 717.4364524605644 1182.6917234424159 "></path><path d="M757.2053619450553 -233.12623296863342C876.9086428614814 50.28111315406932 862.725295296399 1027.5439525399618 709.2970578086306 1162.622664202506C555.8688203208624 1297.7013758650505 140.4531029201928 698.6589291342809 20.74982200376678 415.2515830115781C-98.95345891265919 131.84423688887523 -18.70692807798173 -62.65388552392437 134.7213094097865 -197.73259718646864C288.1495468975547 -332.8113088490128 637.5020810286292 -516.5335790913364 757.2053619450553 -233.12623296863342C876.9086428614814 50.28111315406932 862.725295296399 1027.5439525399618 709.2970578086306 1162.622664202506 "></path><path d="M747.8051614122701 -216.46499703730433C864.3583559887902 59.48426102953795 850.5482544122626 1011.0296572736963 701.157602121541 1142.5536659977527C551.7669498308192 1274.0776747218088 147.283224993325 690.7995029050071 30.730030416804993 414.8502448381648C-85.82316415971502 138.90098677132255 -7.688384136476429 -50.47876399903498 141.7022681542453 -182.00277272309108C291.09292044496704 -313.52678144714736 631.25196683575 -492.4142551041465 747.8051614122701 -216.46499703730433C864.3583559887902 59.48426102953795 850.5482544122626 1011.0296572736963 701.157602121541 1142.5536659977527 "></path><path d="M738.4050829497974 -199.80370007081888C851.8081911864115 68.68746994016283 838.3713355984387 994.5154230425871 693.0182685047637 1122.4847288281555C547.6652014110884 1250.454034613724 154.1134691367697 682.9401377108898 40.710360900155706 414.4489676999078C-72.69274733645841 145.95779768892623 3.3302818753413703 -38.30358143898911 148.6833489690165 -166.2728872245574C294.0364160626917 -294.2421930101256 625.0019747131834 -468.2948700818005 738.4050829497974 -199.80370007081888C851.8081911864115 68.68746994016283 838.3713355984387 994.5154230425871 693.0182685047637 1122.4847288281555 "></path><path d="M729.0048824170121 -183.14252517464593C839.2579043137202 77.89055678047521 826.1942947143025 978.0010667411655 684.8788128176739 1102.415669588246C543.5633309210451 1226.8302724353262 160.94359120990202 675.0806504464595 50.69056931319392 414.0475684913383C-59.56245258351424 153.01448653621742 14.348825816846613 -26.12852094925597 155.6643077134753 -150.5431237963362C296.9797896101039 -274.95772664341644 618.7518605203041 -444.175607129767 729.0048824170121 -183.14252517464593C839.2579043137202 77.89055678047521 826.1942947143025 978.0010667411655 684.8788128176739 1102.415669588246 "></path><path d="M719.6047429193832 -166.48135027847303C826.7076784761857 87.09364362078736 814.0173148653223 961.4867104397438 676.7394181657403 1082.3466103483358C539.4615214661582 1203.2065102569281 167.7737743181906 667.2211631820292 60.67083876138838 413.6461692827688C-46.43209679541383 160.0711753835085 25.367430793508163 -13.95346045952283 162.64532749309024 -134.813360368115C299.92322419267236 -255.6732602767072 612.5018073625812 -420.0563441777335 719.6047429193832 -166.48135027847303C826.7076784761857 87.09364362078736 814.0173148653223 961.4867104397438 676.7394181657403 1082.3466103483358 "></path><path d="M710.2046644569109 -149.82005331198764C814.157513673807 96.29685253141224 801.8403960514986 944.9724762086346 668.600084548963 1062.2776731787387C535.3597730464273 1179.5828701488429 174.6040184616353 659.3617979879118 70.6511692447391 413.24489214451205C-33.30167997215716 167.12798630111206 36.386096805325906 -1.7782778994770752 169.62640830786154 -119.08347486958132C302.86671981039706 -236.38867183968546 606.2518152400145 -395.93695915538746 710.2046644569109 -149.82005331198764C814.157513673807 96.29685253141224 801.8403960514986 944.9724762086346 668.600084548963 1062.2776731787387 "></path><path d="M700.8044639241257 -133.15887841581468C801.6072268011158 105.49993937172462 789.6633551673622 928.4581199072129 660.4606288618733 1042.208613938829C531.2579025563841 1155.9591079704455 181.4341405347676 651.5023107234817 80.6313776577773 412.8434929359423C-20.171385219212993 174.18467514840324 47.404640746831205 10.39678259025618 176.60736705232023 -103.35371144136002C305.81009335780936 -217.10420547297628 600.0017010471353 -371.81769620335393 700.8044639241257 -133.15887841581468C801.6072268011158 105.49993937172462 789.6633551673622 928.4581199072129 660.4606288618733 1042.208613938829 "></path><path d="M691.4043244264966 -116.49770351964179C789.057000963581 114.70302621203689 777.4863753183822 911.9437636057912 652.3212342099397 1022.1395546989195C527.1560931014972 1132.3353457920477 188.26432364305606 643.6428234590517 90.61164710597177 412.44209372737294C-7.041029431112634 181.24136399569443 58.4232457234927 22.57184307998932 183.58838683193528 -87.62394801313883C308.7535279403778 -197.81973910626704 593.7516478894122 -347.6984332513204 691.4043244264966 -116.49770351964179C789.057000963581 114.70302621203689 777.4863753183822 911.9437636057912 652.3212342099397 1022.1395546989195 "></path><path d="M682.0041849288676 -99.83640655315634C776.506775126046 123.90623512266166 765.309395469402 895.429529374682 644.1818395580061 1002.0706175293221C523.0542836466101 1108.7117056839622 195.09450675134462 635.7834582649339 100.59191655416623 412.04081658911593C6.089326356987783 188.29817491329788 69.44185070015425 34.747025640035076 190.56940661155022 -71.89406251460514C311.69696252294625 -178.5351506692453 587.5015947316892 -323.5790482289744 682.0041849288676 -99.83640655315634C776.506775126046 123.90623512266166 765.309395469402 895.429529374682 644.1818395580061 1002.0706175293221 "></path><path d="M672.6040454312388 -83.17523165698344C763.9565492885113 133.10932196297404 753.1324156204219 878.9151730732603 636.0424449060727 982.0015582894125C518.9524741917231 1085.0879435055645 201.92468985963313 627.9239710005038 110.5721860023607 411.63941738054643C19.2196821450882 195.35486376058907 80.4604556768158 46.92208612976822 197.55042639116522 -56.16429908638395C314.6403971055147 -159.25068430253611 581.2515415739663 -299.45978527694086 672.6040454312388 -83.17523165698344C763.9565492885113 133.10932196297404 753.1324156204219 878.9151730732603 636.0424449060727 982.0015582894125 "></path><path d="M663.2039059336098 -66.51405676081049C751.4063234509763 142.31240880328642 740.9554357714419 862.4008167718387 627.9030502541391 961.9324990495029C514.850664736836 1061.4641813271671 208.75487296792164 620.0644837360737 120.55245545055516 411.23801817197705C32.35003793318862 202.41155260788014 91.47906065347729 59.09714661950147 204.5314461707802 -40.4345356581627C317.58383168808314 -139.96621793582688 575.0014884162433 -275.34052232490734 663.2039059336098 -66.51405676081049C751.4063234509763 142.31240880328642 740.9554357714419 862.4008167718387 627.9030502541391 961.9324990495029 "></path><path d="M653.803766435981 -49.852881864637595C738.8560976134415 151.51549564359857 728.778455922462 845.886460470417 619.7636556022055 941.863439809593C510.7488552819491 1037.8404191487691 215.58505607621015 612.2049964716439 130.53272489874956 410.83661896340743C45.48039372128903 209.4682414551712 102.49766563013884 71.27220710923461 211.5124659503952 -24.704772229941454C320.5272662706516 -120.68175156911764 568.7514352585204 -251.22125937287382 653.803766435981 -49.852881864637595C738.8560976134415 151.51549564359857 728.778455922462 845.886460470417 619.7636556022055 941.863439809593 "></path><path d="M644.403626938352 -33.1915848981522C726.3058717759067 160.71870455422345 716.6014760734818 829.3722262393076 611.624260950272 921.7945026399959C506.64704582706213 1014.2167790406841 222.41523918449866 604.3456312775261 140.51299434694403 410.43534182515043C58.61074950938945 216.52505237277478 113.51627060680033 83.44738966928037 218.4934857300102 -8.974886731407764C323.47070085322 -101.39716313209595 562.5013821007974 -227.1018743505278 644.403626938352 -33.1915848981522C726.3058717759067 160.71870455422345 716.6014760734818 829.3722262393076 611.624260950272 921.7945026399959 "></path><path d="M635.003487440723 -16.53041000197925C713.7556459383717 169.92179139453583 704.4244962245017 812.8578699378861 603.4848662983384 901.7254434000863C502.54523637217517 990.5930168622865 229.24542229278717 596.486144013096 150.4932637951385 410.03394261658104C71.74110529748987 223.58174122006608 124.53487558346188 95.62245015901362 225.4745055096252 6.754876696813426C326.41413543578847 -82.11269676538672 556.2513289430744 -202.98261139849433 635.003487440723 -16.53041000197925C713.7556459383717 169.92179139453583 704.4244962245017 812.8578699378861 603.4848662983384 901.7254434000863 "></path><path d="M625.6033784606723 0.13079541177182819C701.205450618415 179.12490875242622 692.2475468930999 796.3435441540423 595.345502163983 881.6564146777546C498.44345743486633 966.9692852014668 236.0756359186538 588.6266872662441 160.47356376091108 409.63257392558967C84.87149160316835 230.63846058493527 135.5535110777015 107.79754116632489 232.45555580681832 22.48467064261274C329.35760053593503 -62.82819988109941 550.0013063029295 -178.86331792888262 625.6033784606723 0.13079541177182819C701.205450618415 179.12490875242622 692.2475468930999 796.3435441540423 595.345502163983 881.6564146777546 "></path><path d="M616.2032389630433 16.792031343100973C688.6552247808801 188.32805662789474 680.0705670441197 779.8292488877769 587.2061075120496 861.5874164730012C494.34164797997914 943.3455840582253 242.9058190269423 580.7672610369702 170.45383320910554 409.2312357521764C98.00184739126877 237.6952104673826 146.57211605436305 119.9726626912144 239.43657558643332 38.21449510599024C332.3010351185036 -43.54367247923392 543.7512531452066 -154.74399394169285 616.2032389630433 16.792031343100973C688.6552247808801 188.32805662789474 680.0705670441197 779.8292488877769 587.2061075120496 861.5874164730012 "></path><path d="M606.8030994654143 33.45326727443012C676.1049989433452 197.53120450336337 667.8935871951396 763.3149536215117 579.066712860116 841.5184182682478C490.2398385250922 919.7218829149838 249.73600213523082 572.9078348076964 180.4341026573 408.82989757876317C111.13220317936918 244.75196034982991 157.5907210310246 132.1477842161039 246.41759536604832 53.94431956936768C335.24446970107203 -24.25914507736843 537.5011999874836 -130.62466995450308 606.8030994654143 33.45326727443012C676.1049989433452 197.53120450336337 667.8935871951396 763.3149536215117 579.066712860116 841.5184182682478 "></path><path d="M597.4029599677855 50.11450320575932C663.5547731058103 206.734352378832 655.7166073461597 746.800658355246 570.9273182081824 821.4494200634942C486.1380290702052 896.0981817717425 256.5661852435193 565.0484085784225 190.41437210549446 408.4285594053499C124.2625589674696 251.80871023227724 168.6093260076861 144.3229057409933 253.39861514566326 69.67414403274518C338.1879042836405 -4.974617675502998 531.2511468297605 -106.5053459673133 597.4029599677855 50.11450320575932C663.5547731058103 206.734352378832 655.7166073461597 746.800658355246 570.9273182081824 821.4494200634942 "></path><path d="M588.0027899525785 66.77567810193221C651.0045167506973 215.93743921914427 643.5395969796014 730.2863020538246 562.7878930386707 801.3803608235846C482.03618909774013 872.4744195933447 263.3963378342297 557.1889213139925 200.3946110361108 408.0271601967804C137.3928842379919 258.8653990795684 179.62790046676952 156.49796623072643 260.3796044077002 85.40390746096637C341.1313083486308 14.309848691206241 525.0010631544595 -82.38608301527978 588.0027899525785 66.77567810193221C651.0045167506973 215.93743921914427 643.5395969796014 730.2863020538246 562.7878930386707 801.3803608235846 "></path><path d="M578.6026504549495 83.43691403326142C638.4542909131626 225.14058709461278 631.3626171306214 713.7720067875589 554.6484983867372 781.311362618831C477.93437964285306 848.8507184501034 270.2265209425183 549.3294950847186 210.37488048430527 407.62582202336716C150.52324002609225 265.92214896201574 190.646505443431 168.67308775561594 267.3606241873151 101.1337319243438C344.07474293119924 33.59437609307173 518.7510099967365 -58.266759028090064 578.6026504549495 83.43691403326142C638.4542909131626 225.14058709461278 631.3626171306214 713.7720067875589 554.6484983867372 781.311362618831 "></path><path d="M569.2025109573206 100.09814996459056C625.9040650756276 234.3437349700814 619.1856372816412 697.2577115212935 546.5091037348037 761.2423644140777C473.8325701879661 825.2270173068619 277.05670405080673 541.4700688554449 220.35514993249973 407.2244838499539C163.65359581419267 272.9788988444632 201.66511042009256 180.84820928050544 274.3416439669301 116.8635563877213C347.0181775137678 52.87890349493716 512.5009568390135 -34.14743504090029 569.2025109573206 100.09814996459056C625.9040650756276 234.3437349700814 619.1856372816412 697.2577115212935 546.5091037348037 761.2423644140777 "></path><path d="M559.8023714596916 116.75932486076351C613.3538392380929 243.54682181039368 607.0086574326612 680.7433552198719 538.3697090828701 741.173305174168C469.730760733079 801.6032551284641 283.8868871590953 533.6105815910146 230.3354193806942 406.8230846413844C176.7839516022931 280.03558769175424 212.68371539675405 193.02326977023858 281.3226637465451 132.5933198159425C349.96161209633624 72.1633698616464 506.25090368129054 -10.028172088866768 559.8023714596916 116.75932486076351C613.3538392380929 243.54682181039368 607.0086574326612 680.7433552198719 538.3697090828701 741.173305174168 "></path><path d="M550.4022472208519 133.42056079209266C600.8036286593469 252.7499696858623 594.8316928424701 664.2290599536065 530.2303296897257 721.1043069694146C465.6289665369811 777.9795539852228 290.71708552617287 525.7511553617409 240.31570408767772 406.42174646797116C189.91432264918257 287.09233757420157 223.70233563220467 205.1983912951281 288.3036987849492 148.32314427932C352.90506193769374 91.44789726351189 500.00086578235664 14.091151898323005 550.4022472208519 133.42056079209266C600.8036286593469 252.7499696858623 594.8316928424701 664.2290599536065 530.2303296897257 721.1043069694146 "></path><path d="M541.0021077232229 150.0817967234218C588.2534028218121 261.9531175613308 582.6547129934901 647.714764687341 522.0909350377922 701.0353087646611C461.52715708209416 754.3558528419812 297.5472686344614 517.8917291324669 250.29597353587218 406.0204082945579C203.04467843728298 294.1490874566489 234.72094060886621 217.37351282001754 295.2847185645642 164.05296874269743C355.8484965202622 110.73242466537732 493.7508126246337 38.21047588551278 541.0021077232229 150.0817967234218C588.2534028218121 261.9531175613308 582.6547129934901 647.714764687341 522.0909350377922 701.0353087646611 "></path><path d="M531.601968225594 166.74300213717288C575.7031769842772 271.15623491922133 570.47773314451 631.2004389034975 513.9515403858586 680.9662800423296C457.4253476272071 730.7321211811617 304.3774517427499 510.032272385615 260.27624298406664 405.61903960356665C216.17503422538334 301.2058068215182 245.7395455855277 229.54860382732886 302.26573834417917 179.78276268849675C358.79193110283063 130.0169215496647 487.5007594669107 62.32976935512443 531.601968225594 166.74300213717288C575.7031769842772 271.15623491922133 570.47773314451 631.2004389034975 513.9515403858586 680.9662800423296 "></path><path d="M522.201828727965 183.4042075509239C563.1529511467425 280.3593522771117 558.30075329553 614.6861131196538 505.81214573392504 660.897251319998C453.3235381723201 707.108389520342 311.2076348510384 502.17281563876304 270.2565124322611 405.21767091257516C229.30539001348376 308.2625261863874 256.75815056218926 241.72369483464018 309.24675812379417 195.51255663429612C361.7353656853991 149.30141843395205 481.25070630918776 86.44906282473607 522.201828727965 183.4042075509239C563.1529511467425 280.3593522771117 558.30075329553 614.6861131196538 505.81214573392504 660.897251319998 "></path><path d="M512.8016892303361 200.0653977058859C550.6027253092075 289.5624543762131 546.1237734465499 598.1717720770212 497.67275108199146 640.8282073388773C449.22172871743317 683.4846426007334 318.0378179593269 494.31334363312203 280.23678188045557 404.81628696279483C242.43574580158418 315.31923029246764 267.77675553885075 253.89877058316245 316.22777790340916 211.24233532130637C364.6788002679675 168.5859000594503 475.0006531514648 110.56834103555866 512.8016892303361 200.0653977058859C550.6027253092075 289.5624543762131 546.1237734465499 598.1717720770212 497.67275108199146 640.8282073388773 "></path><path d="M503.40154973270717 216.72663363721506C538.0524994716726 298.7656022516817 533.9467935975698 581.6574768107558 489.533356430058 620.7592091341239C445.1199192625461 659.8609414574919 324.8680010676154 486.4539174038482 290.21705132865003 404.4149487893816C255.5661015896846 322.37598017491496 278.7953605155123 266.07389210805195 323.20879768302416 226.97215978468387C367.622234850536 187.87042746131578 468.75059999374184 134.68766502274843 503.40154973270717 216.72663363721506C538.0524994716726 298.7656022516817 533.9467935975698 581.6574768107558 489.533356430058 620.7592091341239 "></path><path d="M494.00139497628925 233.38783905096614C525.5022583753487 307.96871960957213 521.7697984898007 565.1431510269123 481.3939465193354 600.6901804117923C441.01809454887007 636.2372097966723 331.69816891711486 478.59446065699626 300.19730551805543 404.0135800983902C268.69644211899595 329.4326995397842 289.81395023338473 278.2489831153632 330.1898022038501 242.70195373048318C370.5656541743154 207.15492434560315 462.5005315772298 158.80695849236008 494.00139497628925 233.38783905096614C525.5022583753487 307.96871960957213 521.7697984898007 565.1431510269123 481.3939465193354 600.6901804117923 "></path><path d="M484.6012554786603 250.04909024108434C512.9520325378138 317.17188274382977 509.5928186408206 548.6288710194358 473.2545518674019 580.6211974658279C436.91628509398305 612.61352391222 338.52835202540336 470.7350496865115 310.17757496624984 403.612257183766C281.82679790709636 336.48946468102065 300.8325552100463 290.4241198990418 337.1708219834651 258.4317934526497C373.5090887568839 226.43946700625764 456.25047841950675 182.92629773833892 484.6012554786603 250.04909024108434C512.9520325378138 317.17188274382977 509.5928186408206 548.6288710194358 473.2545518674019 580.6211974658279 "></path><path d="M475.2011159810314 266.71026513725724C500.40180670027894 326.3749695841421 497.41583879184054 532.1145147180141 465.11515721546834 560.5521382259183C432.81447563909603 588.9897617338223 345.3585351336919 462.87556242208143 320.1578444144443 403.2108579751965C294.9571536951967 343.5461535283117 311.8511601867078 302.599180388775 344.1518417630801 274.16155688087093C376.45252333945234 245.72393337296688 450.0004252617838 207.04556069037244 475.2011159810314 266.71026513725724C500.40180670027894 326.3749695841421 497.41583879184054 532.1145147180141 465.11515721546834 560.5521382259183 "></path><path d="M465.80097648340245 283.37150106858644C487.8515808627441 335.57811745961067 485.2388589428605 515.6002194517487 456.9757625635348 540.4831400211648C428.712666184209 565.3660605905809 352.1887182419804 455.0161361928075 330.13811386263876 402.8095198017834C308.08750948329714 350.6029034107591 322.8697651633693 314.77430191366443 351.1328615426951 289.8913813442484C379.3959579220208 265.0084607748323 443.75037210406083 231.1648846775622 465.80097648340245 283.37150106858644C487.8515808627441 335.57811745961067 485.2388589428605 515.6002194517487 456.9757625635348 540.4831400211648 "></path><path d="M456.40083698577354 300.0326912235484C475.3013550252092 344.781219558712 473.0618790938804 499.08587840911605 448.8363679116012 520.4140960400441C424.61085672932205 541.7423136709722 359.01890135026895 447.1566641871665 340.1183833108332 402.4081358520029C321.21786527139756 357.6596075168393 333.8883701400309 326.9493776621867 358.11388132231 305.6211600312587C382.3393925045892 284.2929424003306 437.50031894633787 255.2841628883848 456.40083698577354 300.0326912235484C475.3013550252092 344.781219558712 473.0618790938804 499.08587840911605 448.8363679116012 520.4140960400441 "></path><path d="M447.0006974881446 316.69394241366666C462.75112918767434 353.9843826929697 460.88489924490034 482.5715984016397 440.6969732596677 500.3451130940798C420.50904727443503 518.1186277865197 365.84908445855746 439.2972532166817 350.0986527590277 402.0068129373787C334.348221059498 364.71637265807567 344.90697511669237 339.1245144458652 365.094901101925 321.3509997534252C385.28282708715767 303.57748506098517 431.2502657886149 279.40350213436363 447.0006974881446 316.69394241366666C462.75112918767434 353.9843826929697 460.88489924490034 482.5715984016397 440.6969732596677 500.3451130940798 "></path><path d="M437.6005732493048 333.3551478274177C450.20091860892853 363.1875000508601 448.70793465470933 466.0572726177961 432.55759386652323 480.2760843717482C416.4072530783371 494.4948961257003 372.679282825635 431.4377964698298 360.0789374660112 401.6054442463873C347.47859210638745 371.7730920229449 355.925595352143 351.2996054531765 372.0759361403291 337.0807936992245C388.22627692851523 322.8619819452725 425.00022788968096 303.5227956039753 437.6005732493048 333.3551478274177C450.20091860892853 363.1875000508601 448.70793465470933 466.0572726177961 432.55759386652323 480.2760843717482 "></path><path d="M428.2004184928868 350.01635324116876C437.6506775126046 372.39061740875053 436.5309395469402 449.54294683395256 424.4181839558006 460.2070556494166C412.305428364661 470.8711644648806 379.5094506751345 423.5783397229778 370.0591916554166 401.204075555396C360.6089326356988 378.8298113878142 366.9441850700154 363.4746964604879 379.056940661155 352.8105876450239C391.1696962522946 342.14647882955984 418.75015947316894 327.64208907358693 428.2004184928868 350.01635324116876C437.6506775126046 372.39061740875053 436.5309395469402 449.54294683395256 424.4181839558006 460.2070556494166 "></path><path d="M418.8002789952578 366.67757391370884C425.10045167506973 381.59375002543004 424.35395969796014 433.02863630889806 416.2787893038671 440.1380421858741C408.20361890977404 447.24744806285014 386.339633783423 415.7188982349149 380.0394611036111 400.8027221231937C373.73928842379917 385.8865460114725 377.96279004667696 375.6498027265883 386.03796044077 368.54039684961225C394.11313083486306 361.43099097263627 412.500106315446 351.76139780198764 418.8002789952578 366.67757391370884C425.10045167506973 381.59375002543004 424.35395969796014 433.02863630889806 416.2787893038671 440.1380421858741 "></path><path d="M409.4001394976289 383.3387793274599C412.55022583753487 390.7968673833205 412.17697984898007 416.5143105250545 408.1393946519335 420.0690134635425C404.101809454887 423.62371640203054 393.1698168917115 407.8594414880629 390.01973055180554 400.4013534322023C386.8696442118996 392.9432653763417 388.98139502333845 387.8248937338996 393.018980220385 384.2701907954116C397.05656541743156 380.7154878569236 406.25005315772296 375.8806912715993 409.4001394976289 383.3387793274599C412.55022583753487 390.7968673833205 412.17697984898007 416.5143105250545 408.1393946519335 420.0690134635425 "></path></g></svg>